STARTFONT 2.1
FONT -sun-helmet-bold-i-normal--24-240-75-75-p-153-adobe-fontspecific
SIZE 24 75 75
FONTBOUNDINGBOX 32 28 -4 -5

STARTPROPERTIES 28
FOUNDRY "sun"
FAMILY_NAME "helmet"
WEIGHT_NAME "bold"
SLANT "i"
SETWIDTH_NAME "normal"
ADD_STYLE_NAME ""
PIXEL_SIZE 25
POINT_SIZE 240
RESOLUTION_X 75
RESOLUTION_Y 75
SPACING "p"
AVERAGE_WIDTH 153
CHARSET_REGISTRY "adobe"
CHARSET_ENCODING "fontspecific"
COPYRIGHT "© 1999 Sun Microsystems, Inc."
RAW_PIXELSIZE 1000
RAW_POINTSIZE 964
RAW_ASCENT 929
RAW_DESCENT 205
RAW_AVERAGE_WIDTH 6124
FACE_NAME "HelmetBoldItalic5"
_XMBDFED_INFO "Edited with xmbdfed 2.4."
WEIGHT 10
X_HEIGHT -2
QUAD_WIDTH 14
DEFAULT_CHAR 4
FONT_DESCENT 5
FONT_ASCENT 23
ENDPROPERTIES

CHARS 202

STARTCHAR char32
ENCODING 32
SWIDTH 28 0
DWIDTH 8 0
BBX 0 0 0 0
BITMAP
ENDCHAR

STARTCHAR char33
ENCODING 33
SWIDTH 28 0
DWIDTH 8 0
BBX 9 18 1 0
BITMAP
0F80
1F00
1F00
1F00
1F00
1F00
3E00
3E00
3E00
3C00
3C00
0000
0000
7C00
7C00
FC00
F800
F800
ENDCHAR

STARTCHAR char34
ENCODING 34
SWIDTH 6 0
DWIDTH 12 0
BBX 12 10 2 8
BITMAP
7CF0
7DF0
7DF0
79E0
79E0
38E0
38E0
71C0
F3C0
C380
ENDCHAR

STARTCHAR char35
ENCODING 35
SWIDTH 13 0
DWIDTH 14 0
BBX 13 18 0 0
BITMAP
0460
0460
0C60
0C60
0C60
7FF8
0FF8
0840
18C0
18C0
18C0
FFF0
FFF0
1880
1180
1180
3180
3180
ENDCHAR

STARTCHAR char36
ENCODING 36
SWIDTH 31 0
DWIDTH 19 0
BBX 16 22 1 -2
BITMAP
0060
0060
03F8
0FFC
1FFE
1FFF
3E3F
3E1F
3F80
3FF0
1FF8
0FFC
03FE
007E
F83E
FC3E
FFFC
7FF8
3FF0
0FC0
0600
0600
ENDCHAR

STARTCHAR char37
ENCODING 37
SWIDTH 16 0
DWIDTH 25 0
BBX 23 17 1 0
BITMAP
0F00C0
3F81C0
7FC380
71C380
F1C700
E1CE00
E3CE78
E39CFC
FFB9FE
7F39CE
3E738E
00F38E
00E38E
01C39C
03C3FC
0381F8
0700F0
ENDCHAR

STARTCHAR char38
ENCODING 38
SWIDTH 35 0
DWIDTH 20 0
BBX 18 18 0 0
BITMAP
01F800
07FE00
0FFF00
0F9F00
0F9F00
0FBF00
0FFE00
07FC00
1FF800
3FF7C0
7FFFC0
7EFF80
787F00
FC7F00
7DFE00
7FFF00
3FFF80
1F9F80
ENDCHAR

STARTCHAR char39
ENCODING 39
SWIDTH 25 0
DWIDTH 7 0
BBX 7 10 2 8
BITMAP
1E
3E
3C
70
70
7C
7C
F8
F8
F8
ENDCHAR

STARTCHAR char40
ENCODING 40
SWIDTH 35 0
DWIDTH 10 0
BBX 10 23 2 -5
BITMAP
07C0
0F80
0F00
1F00
1E00
3E00
3E00
7C00
7C00
7C00
F800
F800
F800
F800
F800
F800
F800
F800
F800
F800
F800
7800
7800
ENDCHAR

STARTCHAR char41
ENCODING 41
SWIDTH 35 0
DWIDTH 10 0
BBX 10 23 -2 -5
BITMAP
0780
07C0
07C0
07C0
07C0
07C0
07C0
07C0
07C0
07C0
07C0
0FC0
0F80
0F80
0F80
0F80
1F00
1F00
3E00
3E00
7C00
7800
F800
ENDCHAR

STARTCHAR char42
ENCODING 42
SWIDTH 6 0
DWIDTH 12 0
BBX 10 10 3 8
BITMAP
0E00
0E00
4C00
FDC0
FFC0
3FC0
7E00
7E00
E700
6600
ENDCHAR

STARTCHAR char43
ENCODING 43
SWIDTH 28 0
DWIDTH 18 0
BBX 15 15 2 0
BITMAP
0380
0380
0380
0380
0380
0380
FFFE
FFFE
FFFE
0380
0380
0380
0380
0380
0380
ENDCHAR

STARTCHAR char44
ENCODING 44
SWIDTH 25 0
DWIDTH 7 0
BBX 7 9 -1 -4
BITMAP
3E
7E
7C
7C
7C
1C
38
F8
F0
ENDCHAR

STARTCHAR char45
ENCODING 45
SWIDTH 35 0
DWIDTH 10 0
BBX 8 4 1 5
BITMAP
FF
FF
FF
FF
ENDCHAR

STARTCHAR char46
ENCODING 46
SWIDTH 25 0
DWIDTH 7 0
BBX 6 5 0 0
BITMAP
7C
FC
F8
F8
F8
ENDCHAR

STARTCHAR char47
ENCODING 47
SWIDTH 10 0
DWIDTH 13 0
BBX 16 18 -1 0
BITMAP
001F
003E
007E
007C
00F8
01F8
01F0
03F0
03E0
07C0
0FC0
0F80
1F00
3F00
3E00
7E00
7C00
F800
ENDCHAR

STARTCHAR char48
ENCODING 48
SWIDTH 24 0
DWIDTH 17 0
BBX 15 17 1 0
BITMAP
03F0
0FF8
1FFC
3F3C
3E3E
7C3E
7C3E
FC3E
F83E
F83E
F87C
F87C
F8F8
7CF8
7FF0
3FE0
0F80
ENDCHAR

STARTCHAR char49
ENCODING 49
SWIDTH 24 0
DWIDTH 17 0
BBX 11 17 4 0
BITMAP
03C0
07C0
0FC0
BFC0
FFC0
FF80
FF80
8F80
1F80
1F00
1F00
1F00
1F00
3F00
3E00
3E00
3E00
ENDCHAR

STARTCHAR char50
ENCODING 50
SWIDTH 24 0
DWIDTH 17 0
BBX 16 18 0 -1
BITMAP
01F8
07FC
0FFE
1F3F
3F1F
3E1F
3E3F
007E
01FE
07F8
0FF0
3FC0
3F80
7F3C
7FFC
FFFC
FFFC
FF00
ENDCHAR

STARTCHAR char51
ENCODING 51
SWIDTH 24 0
DWIDTH 17 0
BBX 16 17 1 0
BITMAP
03F8
0FFE
1FFE
3F3F
3E1F
3C1F
01FE
01FE
03FC
03FC
F87E
F87E
F87E
FCFC
7FF8
7FF0
1FC0
ENDCHAR

STARTCHAR char52
ENCODING 52
SWIDTH 24 0
DWIDTH 17 0
BBX 17 17 0 0
BITMAP
001F00
007F00
00FF00
01FF00
03FF00
07FE00
0FBE00
3F3E00
7E3E00
7C7E80
7FFF00
7FFF00
7FFF00
F0FC00
00F800
00F800
00F800
ENDCHAR

STARTCHAR char53
ENCODING 53
SWIDTH 24 0
DWIDTH 17 0
BBX 16 18 1 0
BITMAP
001F
0FFE
1FFE
1FFE
1E00
3E00
3FF8
3FFC
7FFE
7E7E
003E
003E
F83E
F87C
FCFC
7FF8
7FF0
1FC0
ENDCHAR

STARTCHAR char54
ENCODING 54
SWIDTH 24 0
DWIDTH 17 0
BBX 16 17 1 0
BITMAP
01F8
07FE
1FFF
3FFF
3E1F
7DF0
7FFC
FFFC
FE7E
FC3E
F83E
F83E
FC7C
7EFC
7FF8
3FF0
0FC0
ENDCHAR

STARTCHAR char55
ENCODING 55
SWIDTH 24 0
DWIDTH 17 0
BBX 14 16 3 0
BITMAP
FFFC
FFFC
FFF8
F1F8
03F0
07E0
0FC0
0F80
1F00
3F00
3E00
7E00
7C00
7C00
FC00
FC00
ENDCHAR

STARTCHAR char56
ENCODING 56
SWIDTH 24 0
DWIDTH 17 0
BBX 16 17 1 0
BITMAP
03F8
0FFE
1FFE
3E1F
3C1F
3C1E
3FFC
1FF8
3FFC
7C7E
F83E
F83E
F87E
FEFC
7FFC
3FF0
0FC0
ENDCHAR

STARTCHAR char57
ENCODING 57
SWIDTH 24 0
DWIDTH 17 0
BBX 16 17 0 0
BITMAP
03F0
0FFC
1FFE
3F3F
7E1F
7C1F
7C1F
7E3F
7FFF
3FFF
1FFE
03BE
F87C
7FFC
7FF8
3FF0
0FC0
ENDCHAR

STARTCHAR char58
ENCODING 58
SWIDTH 28 0
DWIDTH 8 0
BBX 8 13 1 0
BITMAP
3F
3E
3E
3E
3E
00
00
00
7C
7C
FC
F8
F8
ENDCHAR

STARTCHAR char59
ENCODING 59
SWIDTH 28 0
DWIDTH 8 0
BBX 9 18 0 -5
BITMAP
1F80
1F00
1F00
1F00
3F00
0000
0000
0000
3E00
3E00
7E00
7C00
7C00
1C00
3C00
F800
F000
8000
ENDCHAR

STARTCHAR char60
ENCODING 60
SWIDTH 17 0
DWIDTH 15 0
BBX 12 13 1 0
BITMAP
0010
0030
01E0
0780
1E00
7000
C000
F000
3C00
0F00
03C0
0070
0010
ENDCHAR

STARTCHAR char61
ENCODING 61
SWIDTH 28 0
DWIDTH 18 0
BBX 17 8 1 3
BITMAP
FFFF80
FFFF80
FFFF80
000000
000000
FFFF80
FFFF80
FFFF80
ENDCHAR

STARTCHAR char62
ENCODING 62
SWIDTH 17 0
DWIDTH 15 0
BBX 13 13 1 0
BITMAP
8000
E000
7800
0E00
0380
00F0
0038
0078
01C0
0F00
3C00
F000
8000
ENDCHAR

STARTCHAR char63
ENCODING 63
SWIDTH 21 0
DWIDTH 16 0
BBX 14 19 3 0
BITMAP
0600
1FE0
7FF8
7FFC
FCFC
FC7C
F8FC
03F8
07F0
0FE0
1F80
1F00
0000
0000
3F00
3E00
3E00
3E00
7E00
ENDCHAR

STARTCHAR char64
ENCODING 64
SWIDTH 24 0
DWIDTH 27 0
BBX 18 20 4 -1
BITMAP
01F000
07F800
1C0E00
300700
600180
63ED80
C7FCC0
CE1CC0
CC18C0
DC18C0
D818C0
D83180
D83100
DC7300
4FFE00
679980
300380
1C0F00
07FC00
01F000
ENDCHAR

STARTCHAR char65
ENCODING 65
SWIDTH 2 0
DWIDTH 21 0
BBX 19 18 -1 0
BITMAP
003E00
007F00
007F00
00FF00
01FF00
01FF00
03FF80
03EF80
07EF80
0FCF80
0FCF80
1F9FC0
1FFFC0
3FFFC0
7FFFC0
7E07C0
FC07C0
FC07E0
ENDCHAR

STARTCHAR char66
ENCODING 66
SWIDTH 31 0
DWIDTH 19 0
BBX 18 18 0 0
BITMAP
1FFE00
1FFF80
1FFFC0
1FCFC0
1F07C0
3F07C0
3F0FC0
3FFF80
3FFF00
3FFF00
7E1F80
7E0F80
7C0F80
7C1F80
7FFF80
FFFF00
FFFE00
FFF800
ENDCHAR

STARTCHAR char67
ENCODING 67
SWIDTH 35 0
DWIDTH 20 0
BBX 18 18 1 0
BITMAP
01FC00
07FE00
0FFF80
1FFF80
3F8FC0
7E07C0
7E07C0
FC0000
FC0000
F80000
F80000
F80F80
F81F80
FE3F00
7FFF00
3FFE00
1FFC00
07F000
ENDCHAR

STARTCHAR char68
ENCODING 68
SWIDTH 2 0
DWIDTH 21 0
BBX 19 18 0 0
BITMAP
0FFE00
1FFF80
1FFFC0
1FFFC0
1F0FE0
3F07E0
3F03E0
3F03E0
3E03E0
3E03E0
7E07E0
7E07C0
7C0FC0
7FFF80
7FFF80
FFFF00
FFFE00
FFF800
ENDCHAR

STARTCHAR char69
ENCODING 69
SWIDTH 28 0
DWIDTH 18 0
BBX 18 18 0 0
BITMAP
0FFFC0
1FFFC0
1FFFC0
1FFF80
1F0000
1F0000
3F1F00
3FFE00
3FFE00
3FFE00
3E0000
7C0000
7C0000
7C0000
7FFF00
FFFF00
FFFE00
FFFE00
ENDCHAR

STARTCHAR char70
ENCODING 70
SWIDTH 21 0
DWIDTH 16 0
BBX 18 18 0 0
BITMAP
0FFF80
1FFF80
1FFF80
1FFF80
1F0000
3F0000
3F0000
3F0000
3FFC00
3FFC00
7FFC00
7FFC00
7E0000
7C0000
7C0000
FC0000
FC0000
F80000
ENDCHAR

STARTCHAR char71
ENCODING 71
SWIDTH 2 0
DWIDTH 21 0
BBX 18 19 1 -1
BITMAP
01FC00
07FF00
0FFF80
1F9FC0
3F0FC0
7F07C0
7E0000
7E0000
FC0040
FC3FC0
F83FC0
F83FC0
F82FC0
FC1F80
7E3F80
3FFF80
1FF780
0FC700
000400
ENDCHAR

STARTCHAR char72
ENCODING 72
SWIDTH 35 0
DWIDTH 20 0
BBX 20 18 0 0
BITMAP
0F83F0
1F83F0
1F83F0
1F03E0
1F03E0
1F07E0
3FFFE0
3FFFC0
3FFFC0
3FFFC0
7FFFC0
7E0FC0
7E0F80
7C0F80
7C1F80
FC1F80
FC1F80
F81F00
ENDCHAR

STARTCHAR char73
ENCODING 73
SWIDTH 28 0
DWIDTH 8 0
BBX 9 18 0 0
BITMAP
0F80
0F80
1F80
1F80
1F00
1F00
3F00
3F00
3F00
3E00
3E00
7E00
7E00
7E00
7C00
7C00
FC00
FC00
ENDCHAR

STARTCHAR char74
ENCODING 74
SWIDTH 21 0
DWIDTH 16 0
BBX 16 18 0 0
BITMAP
001F
003F
003F
003E
003E
007E
007E
007C
007C
007C
FCFC
F8FC
F8FC
FDF8
FFF8
7FF0
3FE0
1F80
ENDCHAR

STARTCHAR char75
ENCODING 75
SWIDTH 35 0
DWIDTH 20 0
BBX 21 18 0 0
BITMAP
0F87F8
1F8FF0
1F1FE0
1F3FC0
1F7F00
1FFE00
3FFC00
3FF800
3FF800
3FFC00
7FFC00
7F7E00
7E7E00
7C3F00
7C3F00
FC3F80
FC1F80
F81FC0
ENDCHAR

STARTCHAR char76
ENCODING 76
SWIDTH 21 0
DWIDTH 16 0
BBX 14 18 0 0
BITMAP
0F80
1F80
1F80
1F00
1F00
1F00
3F00
3F00
3E00
3E00
3E00
7E00
7E00
7C00
7FFC
7FFC
FFFC
FFF8
ENDCHAR

STARTCHAR char77
ENCODING 77
SWIDTH 13 0
DWIDTH 24 0
BBX 23 18 0 0
BITMAP
0FE1FE
1FE1FE
1FE3FE
1FE3FC
1FE3FC
3FE7FC
3FE7FC
3FEF7C
3FEFF8
3DFEF8
7DFEF8
7DFEF8
7DFDF0
7DFDF0
F9F9F0
F9F9F0
F9F3F0
F9F1E0
ENDCHAR

STARTCHAR char78
ENCODING 78
SWIDTH 35 0
DWIDTH 20 0
BBX 19 18 0 0
BITMAP
0F83E0
1FC3E0
1FC3E0
1FC3E0
1FE3E0
3FE3C0
3FE7C0
3FE7C0
3EF7C0
3EF7C0
7CF780
7CFF80
7C7F80
7C7F80
FC7F00
F87F00
F83F00
F83F00
ENDCHAR

STARTCHAR char79
ENCODING 79
SWIDTH 2 0
DWIDTH 21 0
BBX 19 18 1 0
BITMAP
01FC00
07FF00
0FFF80
1F9FC0
3F0FC0
7E07E0
7E03E0
FC03E0
FC03E0
F807E0
F807E0
F80FC0
FC1FC0
7E3F80
7FFF00
3FFF00
1FFC00
07F000
ENDCHAR

STARTCHAR char80
ENCODING 80
SWIDTH 31 0
DWIDTH 19 0
BBX 18 18 0 0
BITMAP
1FFE00
1FFF80
1FFF80
1FCFC0
1F0FC0
3F07C0
3F07C0
3E0FC0
3FFF80
3FFF80
7FFF00
7FFC00
7C0000
7C0000
FC0000
FC0000
FC0000
F80000
ENDCHAR

STARTCHAR char81
ENCODING 81
SWIDTH 2 0
DWIDTH 21 0
BBX 18 20 1 -2
BITMAP
01FC00
07FE00
0FFF00
1F9F80
3F0FC0
7E07C0
7E07C0
FC07C0
FC07C0
F807C0
F82FC0
F87F80
FC7F80
FE7F00
7FFF00
3FFE00
1FFF00
07F700
000600
000200
ENDCHAR

STARTCHAR char82
ENCODING 82
SWIDTH 35 0
DWIDTH 20 0
BBX 18 18 0 0
BITMAP
1FFE00
1FFF80
1FFFC0
1F0FC0
1F07C0
3F07C0
3F07C0
3F1F80
3FFF00
7FFE00
7FFE00
7F3F00
7C1F00
7C1F00
FC1F00
FC1F00
FC1F00
F81F00
ENDCHAR

STARTCHAR char83
ENCODING 83
SWIDTH 28 0
DWIDTH 18 0
BBX 16 18 1 0
BITMAP
03F8
0FFE
1FFF
3F3F
3E1F
3E00
3FC0
3FF8
1FFC
0FFE
07FE
007E
F83E
F87E
FCFC
7FF8
7FF0
1FC0
ENDCHAR

STARTCHAR char84
ENCODING 84
SWIDTH 21 0
DWIDTH 16 0
BBX 17 18 1 0
BITMAP
7FFF80
7FFF00
7FFF00
FFFF00
FFFF00
07E000
07C000
07C000
07C000
0FC000
0FC000
0F8000
0F8000
1F8000
1F8000
1F8000
1F0000
1F0000
ENDCHAR

STARTCHAR char85
ENCODING 85
SWIDTH 35 0
DWIDTH 20 0
BBX 19 18 1 0
BITMAP
1F07E0
3F07E0
3F07C0
3E07C0
3E0FC0
7E0FC0
7E0F80
7C0F80
7C1F80
7C1F80
F81F80
F81F00
F83F00
FC7F00
FFFE00
7FFE00
3FF800
0FE000
ENDCHAR

STARTCHAR char86
ENCODING 86
SWIDTH 24 0
DWIDTH 17 0
BBX 17 18 2 0
BITMAP
FC1F80
7C1F80
7C3F00
7C3F00
7C3E00
7C7E00
7C7C00
7CFC00
7CF800
7CF800
7DF000
3FF000
3FE000
3FE000
3FC000
3FC000
3F8000
3F8000
ENDCHAR

STARTCHAR char87
ENCODING 87
SWIDTH 20 0
DWIDTH 26 0
BBX 25 18 2 0
BITMAP
FC3E1F80
FC3E1F00
7C7E3F00
7C7E3E00
7C7E7E00
7CFE7E00
7CFE7C00
7CFEFC00
7DFEF800
7DFFF800
7FDFF000
3FDFF000
3FDFE000
3F9FE000
3F9FE000
3F9FC000
3F1FC000
3F1F8000
ENDCHAR

STARTCHAR char88
ENCODING 88
SWIDTH 2 0
DWIDTH 21 0
BBX 24 18 -2 0
BITMAP
07E0FF
07E0FE
03F1FC
03F3F8
01FFF0
01FFE0
00FFC0
00FF80
007F00
00FF00
01FF00
03FF80
07FFC0
0FEFC0
1FCFE0
3F87E0
7F87F0
FF03F0
ENDCHAR

STARTCHAR char89
ENCODING 89
SWIDTH 35 0
DWIDTH 20 0
BBX 19 18 2 0
BITMAP
FC0FE0
7E0FE0
7E1FC0
3E3F80
3E3F00
3F7E00
1FFC00
1FFC00
0FF800
0FF000
0FE000
07C000
07C000
0FC000
0FC000
0F8000
0F8000
1F8000
ENDCHAR

STARTCHAR char90
ENCODING 90
SWIDTH 28 0
DWIDTH 18 0
BBX 19 18 -1 0
BITMAP
0FFFE0
0FFFE0
0FFFE0
0FFFC0
003FC0
007FC0
00FF00
01FE00
03FC00
07F800
0FF000
1FE000
3FC000
7F8000
7FFF80
7FFF80
7FFF00
FFFF00
ENDCHAR

STARTCHAR char91
ENCODING 91
SWIDTH 6 0
DWIDTH 12 0
BBX 13 23 0 -5
BITMAP
07F8
0FF8
0FF0
0F80
0F80
0F80
1F00
1F00
1F00
1F00
1F00
3E00
3E00
3E00
3E00
3E00
7C00
7C00
7C80
7F80
7F80
FF80
F000
ENDCHAR

STARTCHAR char92
ENCODING 92
SWIDTH 25 0
DWIDTH 7 0
BBX 7 18 0 0
BITMAP
C0
C0
40
40
60
60
20
30
30
10
18
18
08
0C
0C
04
06
06
ENDCHAR

STARTCHAR char93
ENCODING 93
SWIDTH 6 0
DWIDTH 12 0
BBX 13 24 -2 -5
BITMAP
0078
07F8
0FF8
0FF0
0DF0
01F0
01F0
01F0
03E0
03E0
03E0
03E0
03E0
07C0
07C0
07C0
07C0
07C0
0F80
0F80
7F80
7F80
FF80
F000
ENDCHAR

STARTCHAR char94
ENCODING 94
SWIDTH 0 0
DWIDTH 0 0
BBX 10 3 -2 19
BITMAP
1F80
3F80
7BC0
ENDCHAR

STARTCHAR char95
ENCODING 95
SWIDTH 17 0
DWIDTH 15 0
BBX 14 1 0 -3
BITMAP
FFFC
ENDCHAR

STARTCHAR char96
ENCODING 96
SWIDTH 0 0
DWIDTH 0 0
BBX 7 3 -3 15
BITMAP
7C
3C
1E
ENDCHAR

STARTCHAR char97
ENCODING 97
SWIDTH 24 0
DWIDTH 17 0
BBX 16 13 0 0
BITMAP
07F8
1FFE
3E1F
383F
007E
0FFE
7FFE
7E3E
F87E
F8FC
FFFC
7FFC
3E7C
ENDCHAR

STARTCHAR char98
ENCODING 98
SWIDTH 24 0
DWIDTH 17 0
BBX 16 18 0 0
BITMAP
1F00
1F00
1F00
1F00
3E10
3EFC
3FFE
3FFF
3F3F
7E1F
7C1F
7C1F
7C3F
7C3E
FE7E
FFFC
FFF8
F9F0
ENDCHAR

STARTCHAR char99
ENCODING 99
SWIDTH 21 0
DWIDTH 16 0
BBX 14 13 1 0
BITMAP
07E0
1FF8
3FFC
7EFC
7C7C
F800
F800
F800
F8F8
F9F8
7FF0
3FE0
1FC0
ENDCHAR

STARTCHAR char100
ENCODING 100
SWIDTH 24 0
DWIDTH 17 0
BBX 18 18 0 0
BITMAP
000F80
000F80
000F80
000F80
000F80
079F00
1FFF00
3FFF00
7E7F00
7E3F00
FC3E00
F83E00
F83E00
F87E00
FC7C00
7FFC00
7FFC00
3E7C00
ENDCHAR

STARTCHAR char101
ENCODING 101
SWIDTH 24 0
DWIDTH 17 0
BBX 15 13 0 0
BITMAP
07F0
1FFC
3FFE
7E3E
7C3E
FFFE
FFFE
FFFE
F800
F80C
7C7C
3FF8
0FE0
ENDCHAR

STARTCHAR char102
ENCODING 102
SWIDTH 32 0
DWIDTH 9 0
BBX 11 18 0 0
BITMAP
07E0
0FE0
0FC0
1F00
1F00
7FC0
7FC0
7F80
3E00
3E00
3E00
3E00
7E00
7C00
7C00
7C00
7C00
F800
ENDCHAR

STARTCHAR char103
ENCODING 103
SWIDTH 24 0
DWIDTH 17 0
BBX 16 17 0 -4
BITMAP
0F9F
3FFF
7FFE
7E7E
FC3E
F83E
F83E
F87C
FC7C
7FFC
7FFC
3F7C
0078
00F8
F8F0
FFE0
3FC0
ENDCHAR

STARTCHAR char104
ENCODING 104
SWIDTH 24 0
DWIDTH 17 0
BBX 16 18 0 0
BITMAP
1F80
1F00
1F00
1F00
1F00
3E7C
3FFE
3FFE
3FFF
3E3E
7E3E
7C3E
7C3E
7C3E
FC7C
F87C
F87C
F87C
ENDCHAR

STARTCHAR char105
ENCODING 105
SWIDTH 28 0
DWIDTH 8 0
BBX 9 18 0 0
BITMAP
0F80
1F00
1F00
1000
0000
1F00
3F00
3E00
3E00
3E00
3E00
7C00
7C00
7C00
7C00
FC00
F800
F800
ENDCHAR

STARTCHAR char106
ENCODING 106
SWIDTH 28 0
DWIDTH 8 0
BBX 11 23 -3 -5
BITMAP
03E0
03E0
03E0
0000
0000
07C0
07C0
07C0
07C0
0F80
0F80
0F80
0F80
0F80
1F00
1F00
1F00
1F00
FE00
FE00
FE00
FC00
8000
ENDCHAR

STARTCHAR char107
ENCODING 107
SWIDTH 21 0
DWIDTH 16 0
BBX 16 18 0 0
BITMAP
0F80
1F00
1F00
1F00
1F00
3F3F
3E7E
3EFC
3FF8
3FF0
7FE0
7FE0
7FF0
7FF0
7DF8
F8F8
F8FC
F87C
ENDCHAR

STARTCHAR char108
ENCODING 108
SWIDTH 28 0
DWIDTH 8 0
BBX 9 18 0 0
BITMAP
0F80
0F80
1F00
1F00
1F00
1F00
3F00
3E00
3E00
3E00
3E00
7C00
7C00
7C00
7C00
7C00
F800
F800
ENDCHAR

STARTCHAR char109
ENCODING 109
SWIDTH 20 0
DWIDTH 26 0
BBX 24 13 0 0
BITMAP
20787C
3FFDFE
3FFFFE
3FFFFF
7E3F3F
7C3E3E
7C7E3E
7C7C3E
FC7C3E
F87C3E
F87C7C
F8FC7C
F8787C
ENDCHAR

STARTCHAR char110
ENCODING 110
SWIDTH 24 0
DWIDTH 17 0
BBX 15 13 0 0
BITMAP
1078
3FFC
3FFE
3F7E
3E3E
7E3E
7C3E
7C7C
7C7C
FC7C
F87C
F8FC
F8F8
ENDCHAR

STARTCHAR char111
ENCODING 111
SWIDTH 24 0
DWIDTH 17 0
BBX 14 13 1 0
BITMAP
07E0
1FF0
3FF8
7C7C
787C
F87C
F87C
F87C
F878
F8F8
7FF0
3FF0
1FC0
ENDCHAR

STARTCHAR char112
ENCODING 112
SWIDTH 24 0
DWIDTH 17 0
BBX 16 17 -1 -4
BITMAP
1F7C
1FFE
1FFF
1F9F
3F1F
3E1F
3E1F
3E1F
7E1E
7E3E
7FFC
7FF8
7CF0
F800
F800
F800
F800
ENDCHAR

STARTCHAR char113
ENCODING 113
SWIDTH 24 0
DWIDTH 17 0
BBX 15 17 1 -4
BITMAP
0FBE
1FFE
3FFE
7EFE
7C7E
F87C
F87C
F87C
F8FC
F9F8
FFF8
7FF8
3EF8
00F8
01F0
01F0
01F0
ENDCHAR

STARTCHAR char114
ENCODING 114
SWIDTH 3 0
DWIDTH 11 0
BBX 12 13 0 0
BITMAP
1E70
3FE0
3FE0
3FE0
3F80
7E00
7C00
7C00
7C00
7C00
F800
F800
F800
ENDCHAR

STARTCHAR char115
ENCODING 115
SWIDTH 17 0
DWIDTH 15 0
BBX 14 13 0 0
BITMAP
07E0
1FF8
3E7C
7E00
7F00
7FE0
3FF0
0FF8
01F8
F8F8
FFF0
7FE0
3F80
ENDCHAR

STARTCHAR char116
ENCODING 116
SWIDTH 35 0
DWIDTH 10 0
BBX 9 17 1 0
BITMAP
1F00
1F00
3E00
3E00
FF80
FF80
FF80
7C00
7C00
7C00
7C00
F800
F800
FE00
FE00
FE00
7E00
ENDCHAR

STARTCHAR char117
ENCODING 117
SWIDTH 24 0
DWIDTH 17 0
BBX 15 13 1 0
BITMAP
3C3E
7C3E
7C7C
7C7C
787C
787C
F87C
F8F8
F8F8
F9F8
FFF8
7FF8
7C10
ENDCHAR

STARTCHAR char118
ENCODING 118
SWIDTH 17 0
DWIDTH 15 0
BBX 14 13 1 0
BITMAP
F87C
F87C
78F8
78F8
79F0
79F0
7BE0
7BC0
7FC0
3F80
3F80
3F00
3F00
ENDCHAR

STARTCHAR char119
ENCODING 119
SWIDTH 9 0
DWIDTH 23 0
BBX 22 13 1 0
BITMAP
F8787C
F8F8F8
F8F8F8
F9F9F0
F9F9F0
FBFBE0
7BBBE0
7FBBC0
7FBFC0
7F3F80
7F3F80
7E3F00
7E3F00
ENDCHAR

STARTCHAR char120
ENCODING 120
SWIDTH 17 0
DWIDTH 15 0
BBX 16 13 -1 0
BITMAP
1F3F
1F3E
0F7C
0FF8
07F8
07F0
07E0
0FE0
1FF0
3FF0
7EF8
7CF8
FC7C
ENDCHAR

STARTCHAR char121
ENCODING 121
SWIDTH 17 0
DWIDTH 15 0
BBX 15 17 0 -4
BITMAP
7C7E
7C7C
7C7C
3CF8
3CF8
3DF0
3DF0
3DE0
3FE0
3FC0
1FC0
1F80
1F80
7F00
FE00
FE00
FC00
ENDCHAR

STARTCHAR char122
ENCODING 122
SWIDTH 17 0
DWIDTH 15 0
BBX 15 15 -1 -1
BITMAP
0002
1FFE
1FFE
1FFE
11FC
03F8
07F0
0FE0
1FC0
3F80
3F04
7FF8
7FF8
FFF8
C000
ENDCHAR

STARTCHAR char123
ENCODING 123
SWIDTH 32 0
DWIDTH 9 0
BBX 6 23 1 -5
BITMAP
1C
3C
30
30
30
30
30
30
30
30
60
C0
60
30
30
30
30
30
30
30
30
3C
1C
ENDCHAR

STARTCHAR char124
ENCODING 124
SWIDTH 25 0
DWIDTH 7 0
BBX 2 18 2 0
BITMAP
C0
C0
C0
C0
C0
C0
C0
C0
C0
C0
C0
C0
C0
C0
C0
C0
C0
C0
ENDCHAR

STARTCHAR char125
ENCODING 125
SWIDTH 32 0
DWIDTH 9 0
BBX 6 23 1 -5
BITMAP
E0
F0
30
30
30
30
30
30
30
38
1C
0C
18
38
30
30
30
30
30
30
30
F0
E0
ENDCHAR

STARTCHAR char126
ENCODING 126
SWIDTH 0 0
DWIDTH 0 0
BBX 10 3 -2 19
BITMAP
39C0
7F80
F700
ENDCHAR

STARTCHAR char128
ENCODING 128
SWIDTH 35 0
DWIDTH 20 0
BBX 20 18 -1 0
BITMAP
007F00
01FF80
03FFE0
07FFE0
0FE3F0
1F81F0
1F81F0
7FFC00
3F0000
FFFC00
3F0000
3F03E0
3F07E0
3F8FC0
1FFFC0
0FFF80
07FF00
01FC00
ENDCHAR

STARTCHAR char130
ENCODING 130
SWIDTH 25 0
DWIDTH 7 0
BBX 7 9 -1 -4
BITMAP
3E
3E
3E
7C
7C
1C
3C
F8
F0
ENDCHAR

STARTCHAR char131
ENCODING 131
SWIDTH 0 0
DWIDTH 0 0
BBX 10 3 -2 19
BITMAP
1F80
3F80
7BC0
ENDCHAR

STARTCHAR char132
ENCODING 132
SWIDTH 10 0
DWIDTH 13 0
BBX 13 10 -2 -5
BITMAP
3E78
3EF8
3CF8
3CF0
7CF0
1C70
1870
79E0
79E0
6180
ENDCHAR

STARTCHAR char133
ENCODING 133
SWIDTH 24 0
DWIDTH 27 0
BBX 19 3 3 0
BITMAP
E0E0E0
E0E0E0
E0E0E0
ENDCHAR

STARTCHAR char134
ENCODING 134
SWIDTH 17 0
DWIDTH 15 0
BBX 14 22 1 -4
BITMAP
03E0
03E0
03E0
07E0
07C0
7FFC
7FFC
FFFC
FFFC
0FF8
0F80
1F80
1F80
1F80
1F00
1F00
3F00
3F00
3E00
3E00
3E00
7E00
ENDCHAR

STARTCHAR char136
ENCODING 136
SWIDTH 0 0
DWIDTH 0 0
BBX 10 3 -3 15
BITMAP
1F80
3F80
7BC0
ENDCHAR

STARTCHAR char138
ENCODING 138
SWIDTH 16 0
DWIDTH 25 0
BBX 0 0 0 0
BITMAP
ENDCHAR

STARTCHAR char139
ENCODING 139
SWIDTH 32 0
DWIDTH 9 0
BBX 4 8 2 3
BITMAP
10
30
70
C0
C0
60
30
10
ENDCHAR

STARTCHAR char140
ENCODING 140
SWIDTH 27 0
DWIDTH 28 0
BBX 27 19 1 -1
BITMAP
01F9FFE0
07FFFFC0
1FFFFFC0
1F9FFFC0
3F0FFFC0
7E07E000
7E07C000
7C07C700
FC07FF00
F807FF00
F807FE00
F80F8000
F80F8000
FC1FFF00
7E3FFF00
7FFFFF00
3FFFFF00
0F9FFE00
001C0000
ENDCHAR

STARTCHAR char141
ENCODING 141
SWIDTH 16 0
DWIDTH 25 0
BBX 0 0 0 0
BITMAP
ENDCHAR

STARTCHAR char145
ENCODING 145
SWIDTH 25 0
DWIDTH 7 0
BBX 7 10 2 8
BITMAP
1E
3E
3C
70
70
7C
7C
F8
F8
F8
ENDCHAR

STARTCHAR char146
ENCODING 146
SWIDTH 25 0
DWIDTH 7 0
BBX 7 10 2 8
BITMAP
3E
3C
7C
7C
7C
1C
38
F8
F0
E0
ENDCHAR

STARTCHAR char147
ENCODING 147
SWIDTH 10 0
DWIDTH 13 0
BBX 13 10 1 8
BITMAP
0E38
1E78
38E0
30E0
30C0
7DF0
7DF0
79F0
79E0
F9E0
ENDCHAR

STARTCHAR char148
ENCODING 148
SWIDTH 10 0
DWIDTH 13 0
BBX 13 10 1 8
BITMAP
3E78
3EF8
3CF8
3CF0
3CF0
1C70
1C70
38E0
79E0
61C0
ENDCHAR

STARTCHAR char149
ENCODING 149
SWIDTH 32 0
DWIDTH 9 0
BBX 7 6 1 6
BITMAP
38
7C
FE
FE
FE
38
ENDCHAR

STARTCHAR char150
ENCODING 150
SWIDTH 24 0
DWIDTH 17 0
BBX 16 4 0 5
BITMAP
7FFF
7FFF
7FFF
FFFE
ENDCHAR

STARTCHAR char151
ENCODING 151
SWIDTH 28 0
DWIDTH 18 0
BBX 17 3 1 6
BITMAP
FFFF80
FFFF80
FFFF80
ENDCHAR

STARTCHAR char152
ENCODING 152
SWIDTH 0 0
DWIDTH 0 0
BBX 10 4 -3 14
BITMAP
39C0
7F80
E780
0100
ENDCHAR

STARTCHAR char153
ENCODING 153
SWIDTH 9 0
DWIDTH 23 0
BBX 20 10 0 7
BITMAP
FF7070
CB3060
9B30A0
1838E0
1828E0
182D60
182D60
182660
182660
3C72F0
ENDCHAR

STARTCHAR char155
ENCODING 155
SWIDTH 32 0
DWIDTH 9 0
BBX 4 8 2 3
BITMAP
80
C0
70
30
30
70
C0
80
ENDCHAR

STARTCHAR char156
ENCODING 156
SWIDTH 20 0
DWIDTH 26 0
BBX 24 13 0 0
BITMAP
07F3F8
1FFFFC
3FFFFE
7E7E3F
7C3E1F
FC3FFF
F83FFF
F83FFF
F87C00
FC7C0E
7EFE7C
7FFFF8
1FC7E0
ENDCHAR

STARTCHAR char157
ENCODING 157
SWIDTH 16 0
DWIDTH 25 0
BBX 0 0 0 0
BITMAP
ENDCHAR

STARTCHAR char159
ENCODING 159
SWIDTH 35 0
DWIDTH 20 0
BBX 19 22 2 0
BITMAP
079E00
07BE00
0FBE00
000000
FC07E0
7C0FC0
7E1FC0
3E3F80
3E3F00
3F7E00
1FFC00
1FF800
0FF800
0FF000
0FE000
07C000
07C000
0FC000
0FC000
0F8000
0F8000
1F8000
ENDCHAR

STARTCHAR char160
ENCODING 160
SWIDTH 28 0
DWIDTH 8 0
BBX 0 0 0 0
BITMAP
ENDCHAR

STARTCHAR char161
ENCODING 161
SWIDTH 28 0
DWIDTH 8 0
BBX 8 18 0 0
BITMAP
1F
1F
1F
1F
3E
00
00
3C
3C
3C
7C
7C
7C
7C
F8
F8
F8
F8
ENDCHAR

STARTCHAR char162
ENCODING 162
SWIDTH 21 0
DWIDTH 16 0
BBX 14 18 1 -3
BITMAP
01C0
01C0
07E0
1FF8
3FFC
7EFC
7C7C
F800
F800
F800
F8F8
F9F8
7FF0
3FE0
1FC0
0C00
0C00
1C00
ENDCHAR

STARTCHAR char163
ENCODING 163
SWIDTH 28 0
DWIDTH 18 0
BBX 17 18 1 0
BITMAP
01F800
07FE00
1FFF00
1FBF80
3F1F80
3E0F80
3E0F80
3F0000
7FE000
7FE000
1F0000
3E0000
7E0400
FFFC00
FFFC00
7FFC00
7FFC00
00F800
ENDCHAR

STARTCHAR char164
ENCODING 164
SWIDTH 0 0
DWIDTH 0 0
BBX 8 3 1 19
BITMAP
3E
7C
F0
ENDCHAR

STARTCHAR char165
ENCODING 165
SWIDTH 0 0
DWIDTH 0 0
BBX 11 3 -2 19
BITMAP
73C0
7F80
3F00
ENDCHAR

STARTCHAR char166
ENCODING 166
SWIDTH 16 0
DWIDTH 25 0
BBX 0 0 0 0
BITMAP
ENDCHAR

STARTCHAR char167
ENCODING 167
SWIDTH 28 0
DWIDTH 18 0
BBX 16 23 1 -5
BITMAP
01F8
07FC
0FFE
1F3F
1F1F
1F80
1FE0
3FFC
7FFE
F9FF
F87F
FC1F
FF1F
FFFE
7FFC
1FF8
03F8
F8F8
F8F8
FCF8
FFF0
7FE0
1F80
ENDCHAR

STARTCHAR char168
ENCODING 168
SWIDTH 0 0
DWIDTH 0 0
BBX 11 4 -3 14
BITMAP
FBE0
FBC0
F3C0
F000
ENDCHAR

STARTCHAR char169
ENCODING 169
SWIDTH 35 0
DWIDTH 20 0
BBX 18 16 0 0
BITMAP
03F000
0C0C00
100200
204100
63B980
460880
CE08C0
CC00C0
CC00C0
CC00C0
460080
671180
21E100
100200
0C0C00
03F800
ENDCHAR

STARTCHAR char170
ENCODING 170
SWIDTH 0 0
DWIDTH 0 0
BBX 11 3 -2 19
BITMAP
FBE0
FBE0
F3C0
ENDCHAR

STARTCHAR char171
ENCODING 171
SWIDTH 3 0
DWIDTH 11 0
BBX 11 11 0 1
BITMAP
0C60
1CC0
7BC0
7BC0
7380
6700
F780
7780
3380
1180
1080
ENDCHAR

STARTCHAR char172
ENCODING 172
SWIDTH 28 0
DWIDTH 18 0
BBX 16 7 0 0
BITMAP
FFFF
0003
0003
0003
0003
0003
0003
ENDCHAR

STARTCHAR char174
ENCODING 174
SWIDTH 35 0
DWIDTH 20 0
BBX 18 16 0 0
BITMAP
03F000
0C0C00
100200
27F100
631980
431880
C338C0
C3C0C0
C360C0
C370C0
4330C0
631980
279D00
100200
0C0C00
03F800
ENDCHAR

STARTCHAR char176
ENCODING 176
SWIDTH 28 0
DWIDTH 8 0
BBX 9 8 1 9
BITMAP
1C00
2200
4100
C180
C180
4100
2200
1C00
ENDCHAR

STARTCHAR char177
ENCODING 177
SWIDTH 13 0
DWIDTH 14 0
BBX 13 16 0 0
BITMAP
0600
0600
0600
0600
0600
0600
FFF8
0600
0600
0600
0600
0600
0600
0000
0000
FFF8
ENDCHAR

STARTCHAR char179
ENCODING 179
SWIDTH 16 0
DWIDTH 25 0
BBX 0 0 0 0
BITMAP
ENDCHAR

STARTCHAR char180
ENCODING 180
SWIDTH 0 0
DWIDTH 0 0
BBX 6 3 0 15
BITMAP
7C
78
F0
ENDCHAR

STARTCHAR char182
ENCODING 182
SWIDTH 28 0
DWIDTH 18 0
BBX 11 21 2 -4
BITMAP
1FE0
7860
F860
F860
F860
F860
F860
7860
3860
0860
0860
0860
0860
0860
0860
0860
0860
0860
0860
0860
0860
ENDCHAR

STARTCHAR char183
ENCODING 183
SWIDTH 14 0
DWIDTH 4 0
BBX 5 4 1 5
BITMAP
70
F8
F8
70
ENDCHAR

STARTCHAR char184
ENCODING 184
SWIDTH 0 0
DWIDTH 0 0
BBX 6 6 -4 -5
BITMAP
7C
7C
78
38
F8
E0
ENDCHAR

STARTCHAR char186
ENCODING 186
SWIDTH 0 0
DWIDTH 0 0
BBX 10 3 -2 19
BITMAP
39C0
7F80
F700
ENDCHAR

STARTCHAR char187
ENCODING 187
SWIDTH 3 0
DWIDTH 11 0
BBX 10 11 0 1
BITMAP
2300
7380
7BC0
7BC0
39C0
39C0
F780
F780
E700
8C00
0800
ENDCHAR

STARTCHAR char189
ENCODING 189
SWIDTH 16 0
DWIDTH 25 0
BBX 0 0 0 0
BITMAP
ENDCHAR

STARTCHAR char191
ENCODING 191
SWIDTH 21 0
DWIDTH 16 0
BBX 14 18 0 0
BITMAP
01F0
01F0
01F0
03F0
03E0
0000
0000
03E0
07C0
1FC0
3F80
7F00
FC7C
F8FC
FDF8
FFF8
7FF0
1FC0
ENDCHAR

STARTCHAR char192
ENCODING 192
SWIDTH 2 0
DWIDTH 21 0
BBX 19 22 -1 0
BITMAP
00FC00
007C00
001E00
000000
003E00
007F00
007F00
00FF00
00FF00
01FF00
03FF80
03EF80
07EF80
07CF80
0FCF80
1F9FC0
1FFFC0
3FFFC0
3FFFC0
7E07C0
FC07C0
FC07E0
ENDCHAR

STARTCHAR char193
ENCODING 193
SWIDTH 2 0
DWIDTH 21 0
BBX 19 22 -1 0
BITMAP
000FC0
001F00
001E00
000000
003E00
007F00
007F00
00FF00
00FF00
01FF00
03FF80
03EF80
07EF80
07CF80
0FCF80
1F9FC0
1FFFC0
3FFFC0
3FFFC0
7E07C0
FC07C0
FC07E0
ENDCHAR

STARTCHAR char194
ENCODING 194
SWIDTH 2 0
DWIDTH 21 0
BBX 19 22 -1 0
BITMAP
003F00
007F80
00F3C0
000000
003E00
007F00
007F00
00FF00
00FF00
01FF00
03FF80
03EF80
07EF80
07CF80
0FCF80
1F9FC0
1FFFC0
3FFFC0
3FFFC0
7E07C0
FC07C0
FC07E0
ENDCHAR

STARTCHAR char195
ENCODING 195
SWIDTH 2 0
DWIDTH 21 0
BBX 19 22 -1 0
BITMAP
007980
00FF80
00EF00
000000
003E00
007F00
007F00
00FF00
00FF00
01FF00
03FF80
03EF80
07EF80
07CF80
0FCF80
1F9FC0
1FFFC0
3FFFC0
3FFFC0
7E07C0
FC07C0
FC07E0
ENDCHAR

STARTCHAR char196
ENCODING 196
SWIDTH 2 0
DWIDTH 21 0
BBX 19 22 -1 0
BITMAP
00FBE0
00FBE0
00F3C0
000000
003E00
007F00
007F00
00FF00
00FF00
01FF00
03FF80
03EF80
07EF80
07CF80
0FCF80
1F9FC0
1FFFC0
3FFFC0
3FFFC0
7E07C0
FC07C0
FC07E0
ENDCHAR

STARTCHAR char197
ENCODING 197
SWIDTH 2 0
DWIDTH 21 0
BBX 19 23 -1 0
BITMAP
001E00
003B00
001300
003B00
001E00
003F00
007F00
007F00
00FF00
00FF00
01FF80
03EF80
03EF80
07CF80
07CF80
0FCF80
1F9FC0
1FFFC0
3FFFC0
3FFFC0
7E07C0
FC07C0
FC07E0
ENDCHAR

STARTCHAR char198
ENCODING 198
SWIDTH 20 0
DWIDTH 26 0
BBX 27 18 -1 0
BITMAP
007FFFE0
00FFFFC0
00FFFFC0
01FFFFC0
03E7C000
03E7C000
07E7C700
07C7FF00
0FC7FF00
0F8FFF00
1F8F8000
1F8F8000
3FFF8000
3FFF8F00
7FFFFF00
7C1FFF00
FC1FFF00
F81FFF00
ENDCHAR

STARTCHAR char199
ENCODING 199
SWIDTH 35 0
DWIDTH 20 0
BBX 18 23 1 -5
BITMAP
01FC00
07FE00
0FFF80
1FFF80
3F8FC0
7E07C0
7E07C0
FC0000
FC0000
F80000
F80000
F80F80
F81F80
FE3F00
7FFF00
7FFE00
3FFC00
0FF800
0F8000
0F8000
0F8000
170000
1E0000
ENDCHAR

STARTCHAR char200
ENCODING 200
SWIDTH 28 0
DWIDTH 18 0
BBX 18 22 0 0
BITMAP
03F000
01F000
007800
000000
0FFFC0
1FFFC0
1FFFC0
1FFF80
1F0000
1F0000
3F1F00
3FFE00
3FFE00
3FFE00
3E0000
7C0000
7C0000
7C0000
7FFF00
FFFF00
FFFE00
FFFE00
ENDCHAR

STARTCHAR char201
ENCODING 201
SWIDTH 28 0
DWIDTH 18 0
BBX 18 22 0 0
BITMAP
003F00
007C00
007800
000000
0FFFC0
1FFFC0
1FFFC0
1FFF80
1F0000
1F0000
3F1F00
3FFE00
3FFE00
3FFE00
3E0000
7C0000
7C0000
7C0000
7FFF00
FFFF00
FFFE00
FFFE00
ENDCHAR

STARTCHAR char202
ENCODING 202
SWIDTH 28 0
DWIDTH 18 0
BBX 18 22 0 0
BITMAP
00FC00
01FE00
03CF00
000000
0FFFC0
1FFFC0
1FFFC0
1FFF80
1F0000
1F0000
3F1F00
3FFE00
3FFE00
3FFE00
3E0000
7C0000
7C0000
7C0000
7FFF00
FFFF00
FFFE00
FFFE00
ENDCHAR

STARTCHAR char203
ENCODING 203
SWIDTH 28 0
DWIDTH 18 0
BBX 18 22 0 0
BITMAP
03CF00
03CF00
07DF00
000000
0FFFC0
1FFFC0
1FFFC0
1FFF80
1F0000
1F0000
3F1F00
3FFE00
3FFE00
3FFE00
3E0000
7C0000
7C0000
7C0000
7FFF00
FFFF00
FFFE00
FFFE00
ENDCHAR

STARTCHAR char204
ENCODING 204
SWIDTH 28 0
DWIDTH 8 0
BBX 9 22 0 0
BITMAP
3E00
1F00
0F80
0000
0F80
0F80
1F80
1F80
1F00
1F00
1F00
3F00
3F00
3E00
3E00
7E00
7E00
7E00
7C00
7C00
FC00
FC00
ENDCHAR

STARTCHAR char205
ENCODING 205
SWIDTH 28 0
DWIDTH 8 0
BBX 12 22 0 0
BITMAP
03E0
07C0
0F80
0000
0F80
0F80
1F80
1F80
1F00
1F00
1F00
3F00
3F00
3E00
3E00
7E00
7E00
7E00
7C00
7C00
FC00
FC00
ENDCHAR

STARTCHAR char206
ENCODING 206
SWIDTH 28 0
DWIDTH 8 0
BBX 12 22 0 0
BITMAP
0FC0
1FE0
3CE0
0000
0F80
0F80
1F80
1F80
1F00
1F00
1F00
3F00
3F00
3E00
3E00
7E00
7E00
7E00
7C00
7C00
FC00
FC00
ENDCHAR

STARTCHAR char207
ENCODING 207
SWIDTH 28 0
DWIDTH 8 0
BBX 12 22 0 0
BITMAP
3CF0
7DF0
7DF0
0000
0F80
0F80
1F80
1F80
1F00
1F00
1F00
3F00
3F00
3E00
3E00
7E00
7E00
7E00
7C00
7C00
FC00
FC00
ENDCHAR

STARTCHAR char209
ENCODING 209
SWIDTH 35 0
DWIDTH 20 0
BBX 19 22 0 0
BITMAP
00F700
01FF00
01DE00
000000
0F83E0
1FC3E0
1FC3E0
1FC3E0
1FC3E0
3FE3C0
3FE7C0
3FE7C0
3EF7C0
3EF7C0
7CF780
7CFF80
7C7F80
7C7F80
FC7F00
F87F00
F83F00
F83F00
ENDCHAR

STARTCHAR char210
ENCODING 210
SWIDTH 2 0
DWIDTH 21 0
BBX 19 22 1 0
BITMAP
01F000
00F800
007C00
000000
01FC00
07FF00
0FFF80
1F9FC0
3F0FC0
7E07E0
7E03E0
FC03E0
FC03E0
F807E0
F807E0
F80FC0
FC1FC0
7E3F80
7FFF00
3FFF00
1FFC00
07F000
ENDCHAR

STARTCHAR char211
ENCODING 211
SWIDTH 2 0
DWIDTH 21 0
BBX 19 22 1 0
BITMAP
001F00
003E00
007800
000000
01FC00
07FF00
0FFF80
1F9FC0
3F0FC0
7E07E0
7E03E0
FC03E0
FC03E0
F807E0
F807E0
F80FC0
FC1FC0
7E3F80
7FFF00
3FFF00
1FFC00
07F000
ENDCHAR

STARTCHAR char212
ENCODING 212
SWIDTH 2 0
DWIDTH 21 0
BBX 19 22 1 0
BITMAP
007E00
00FF00
01EF00
000000
01FC00
07FF00
0FFF80
1F9FC0
3F0FC0
7E07E0
7E03E0
FC03E0
FC03E0
F807E0
F807E0
F80FC0
FC1FC0
7E3F80
7FFF00
3FFF00
1FFC00
07F000
ENDCHAR

STARTCHAR char213
ENCODING 213
SWIDTH 2 0
DWIDTH 21 0
BBX 19 22 1 0
BITMAP
00E700
01FF00
03DC00
000000
01FC00
07FF00
0FFF80
1F9FC0
3F0FC0
7E07E0
7E03E0
FC03E0
FC03E0
F807E0
F807E0
F80FC0
FC1FC0
7E3F80
7FFF00
3FFF00
1FFC00
07F000
ENDCHAR

STARTCHAR char214
ENCODING 214
SWIDTH 2 0
DWIDTH 21 0
BBX 19 22 1 0
BITMAP
01E780
01E780
01EF80
000000
01FC00
07FF00
0FFF80
1F9FC0
3F0FC0
7E07E0
7E03E0
FC03E0
FC03E0
F807E0
F807E0
F80FC0
FC1FC0
7E3F80
7FFF00
3FFF00
1FFC00
07F000
ENDCHAR

STARTCHAR char216
ENCODING 216
SWIDTH 2 0
DWIDTH 21 0
BBX 21 18 0 0
BITMAP
00FE18
03FFB0
07FFF0
0FCFE0
1F87E0
3F07F0
3F0FF0
7E1FF0
7E3BF0
7EF3F0
7FE3E0
7FC7E0
7F0FE0
3F1FC0
3FFF80
7FFF00
EFFE00
43F800
ENDCHAR

STARTCHAR char217
ENCODING 217
SWIDTH 35 0
DWIDTH 20 0
BBX 19 22 1 0
BITMAP
07E000
01F000
00F800
000000
1F07E0
3F07E0
3F07C0
3E07C0
3E0FC0
7E0FC0
7E0F80
7C0F80
7C1F80
7C1F80
F81F80
F81F00
F83F00
FC7F00
FFFE00
7FFE00
3FF800
0FE000
ENDCHAR

STARTCHAR char218
ENCODING 218
SWIDTH 35 0
DWIDTH 20 0
BBX 19 22 1 0
BITMAP
003E00
007C00
007800
000000
1F07E0
3F07E0
3F07C0
3E07C0
3E0FC0
7E0FC0
7E0F80
7C0F80
7C1F80
7C1F80
F81F80
F81F00
F83F00
FC7F00
FFFE00
7FFE00
3FF800
0FE000
ENDCHAR

STARTCHAR char219
ENCODING 219
SWIDTH 35 0
DWIDTH 20 0
BBX 19 22 1 0
BITMAP
00FC00
01FE00
03CE00
000000
1F07E0
3F07E0
3F07C0
3E07C0
3E0FC0
7E0FC0
7E0F80
7C0F80
7C1F80
7C1F80
F81F80
F81F00
F83F00
FC7F00
FFFE00
7FFE00
3FF800
0FE000
ENDCHAR

STARTCHAR char220
ENCODING 220
SWIDTH 35 0
DWIDTH 20 0
BBX 19 22 1 0
BITMAP
03EF80
03EF00
03CF00
000000
3F07E0
3F07C0
3F07C0
3E07C0
3E0FC0
7E0FC0
7E0F80
7C0F80
7C0F80
FC1F80
FC1F80
FC1F00
FC3F00
FC7F00
FFFE00
7FFE00
3FFC00
0FE000
ENDCHAR

STARTCHAR char222
ENCODING 222
SWIDTH 16 0
DWIDTH 25 0
BBX 0 0 0 0
BITMAP
ENDCHAR

STARTCHAR char223
ENCODING 223
SWIDTH 24 0
DWIDTH 17 0
BBX 16 18 0 0
BITMAP
03F8
07FE
0FFF
1F3F
1F1F
3E1F
3E7E
3EFC
3FFC
3DFE
7C3E
7C3F
7C3F
783E
FA7E
FBFC
FBF8
FBE0
ENDCHAR

STARTCHAR char224
ENCODING 224
SWIDTH 24 0
DWIDTH 17 0
BBX 16 18 0 0
BITMAP
07C0
03E0
01E0
0000
0000
07FC
1FFF
7E1F
401F
007F
0FFF
7FFE
7E3E
F87E
F87E
FFFE
7FFE
3E7C
ENDCHAR

STARTCHAR char225
ENCODING 225
SWIDTH 24 0
DWIDTH 17 0
BBX 16 18 0 0
BITMAP
007C
00F8
00F0
0000
0000
07FC
1FFF
7E1F
401F
007F
0FFF
7FFE
7E3E
F87E
F87E
FFFE
7FFE
3E7C
ENDCHAR

STARTCHAR char226
ENCODING 226
SWIDTH 24 0
DWIDTH 17 0
BBX 16 18 0 0
BITMAP
01F8
03FC
079E
0000
0000
07FC
1FFF
7E1F
401F
007F
0FFF
7FFE
7E3E
F87E
F87E
FFFE
7FFE
3E7C
ENDCHAR

STARTCHAR char227
ENCODING 227
SWIDTH 24 0
DWIDTH 17 0
BBX 16 18 0 0
BITMAP
038C
07FC
0E78
0010
0000
07FC
1FFF
7E1F
401F
007F
0FFF
7FFE
7E3E
F87E
F87E
FFFE
7FFE
3E7C
ENDCHAR

STARTCHAR char228
ENCODING 228
SWIDTH 24 0
DWIDTH 17 0
BBX 16 18 0 0
BITMAP
079F
079F
0F9E
0000
0000
07FE
1FFF
3E1F
383F
007F
0FFF
7FFF
7E3E
F87E
F87E
FFFE
7FFC
3E7E
ENDCHAR

STARTCHAR char229
ENCODING 229
SWIDTH 24 0
DWIDTH 17 0
BBX 16 19 0 0
BITMAP
00F0
0198
0198
0198
00F0
0000
07FC
1FFE
3FFF
7E1F
007F
0FFF
7FFE
FE3E
F87E
F8FE
FFFE
7FFC
3E7C
ENDCHAR

STARTCHAR char230
ENCODING 230
SWIDTH 20 0
DWIDTH 26 0
BBX 24 13 0 0
BITMAP
07F3F8
1FFFFC
3FFFFE
3E3E3F
007E1F
0FFFFF
7FFFFF
7F3FFF
F87C00
F8FC7E
FFFFFC
7F9FF8
3E07E0
ENDCHAR

STARTCHAR char231
ENCODING 231
SWIDTH 21 0
DWIDTH 16 0
BBX 14 18 1 -5
BITMAP
07E0
1FF8
3FFC
7CFC
7C7C
F800
F800
F800
F8F8
FDF8
7FF0
7FF0
1FC0
1E00
1E00
1E00
2C00
3800
ENDCHAR

STARTCHAR char232
ENCODING 232
SWIDTH 24 0
DWIDTH 17 0
BBX 15 18 0 0
BITMAP
07C0
03C0
01E0
0000
0000
07F0
1FFC
3FFE
7E3E
7C3E
FFFE
FFFE
FFFE
F800
FC7C
7FFC
3FF8
0FE0
ENDCHAR

STARTCHAR char233
ENCODING 233
SWIDTH 24 0
DWIDTH 17 0
BBX 15 18 0 0
BITMAP
00F8
00F0
01E0
0000
0000
07F0
1FFC
3FFE
7E3E
7C3E
FFFE
FFFE
FFFE
F800
FC7C
7FFC
3FF8
0FE0
ENDCHAR

STARTCHAR char234
ENCODING 234
SWIDTH 24 0
DWIDTH 17 0
BBX 15 18 0 0
BITMAP
01F8
07F8
0FBC
0000
0000
07F0
1FFC
3FFE
7E3E
7C3E
FFFE
FFFE
FFFE
F800
FC7C
7FFC
3FF8
0FE0
ENDCHAR

STARTCHAR char235
ENCODING 235
SWIDTH 24 0
DWIDTH 17 0
BBX 15 18 0 0
BITMAP
0FBE
0FBC
0F3C
1F00
0000
07F0
1FFC
3FFE
7E3E
7C3E
FFFE
FFFE
FFFE
F800
FC7C
7FFC
3FF8
0FE0
ENDCHAR

STARTCHAR char236
ENCODING 236
SWIDTH 28 0
DWIDTH 8 0
BBX 8 18 0 0
BITMAP
7C
3E
1E
00
00
1F
1F
3E
3E
3E
3E
7C
7C
7C
7C
7C
F8
F8
ENDCHAR

STARTCHAR char237
ENCODING 237
SWIDTH 28 0
DWIDTH 8 0
BBX 9 18 0 0
BITMAP
0F80
0F00
1E00
0000
0000
1F00
1F00
3E00
3E00
3E00
3E00
7C00
7C00
7C00
7C00
7C00
F800
F800
ENDCHAR

STARTCHAR char238
ENCODING 238
SWIDTH 28 0
DWIDTH 8 0
BBX 10 18 0 0
BITMAP
1F80
3F80
7BC0
0000
0000
1F00
1F00
3E00
3E00
3E00
3E00
7E00
7C00
7C00
7C00
7C00
F800
F800
ENDCHAR

STARTCHAR char239
ENCODING 239
SWIDTH 28 0
DWIDTH 8 0
BBX 11 18 0 0
BITMAP
79E0
FBE0
FBE0
F800
0000
1F00
1F00
1F00
3E00
3E00
3E00
3E00
7E00
7C00
7C00
7C00
7C00
F800
ENDCHAR

STARTCHAR char241
ENCODING 241
SWIDTH 24 0
DWIDTH 17 0
BBX 15 18 0 0
BITMAP
039C
07F8
0E78
0010
0000
3E78
3FFC
3FFE
3F7E
3E3E
7E3E
7C3E
7C7C
7C7C
FC7C
F87C
F8FC
F8F8
ENDCHAR

STARTCHAR char242
ENCODING 242
SWIDTH 24 0
DWIDTH 17 0
BBX 14 18 1 0
BITMAP
0F80
0780
03C0
0000
0000
07E0
1FF0
3FF8
7C7C
787C
F87C
F87C
F87C
F878
F8F8
7FF0
3FF0
1FC0
ENDCHAR

STARTCHAR char243
ENCODING 243
SWIDTH 24 0
DWIDTH 17 0
BBX 14 18 1 0
BITMAP
01F0
01E0
03C0
0000
0000
07E0
1FF0
3FF8
7C7C
787C
F87C
F87C
F87C
F878
F8F8
7FF0
3FF0
1FC0
ENDCHAR

STARTCHAR char244
ENCODING 244
SWIDTH 24 0
DWIDTH 17 0
BBX 14 18 1 0
BITMAP
03E0
07F0
0F78
0000
0000
07E0
1FF0
3FF8
7C7C
787C
F87C
F87C
F87C
F878
F8F8
7FF0
3FF0
1FC0
ENDCHAR

STARTCHAR char245
ENCODING 245
SWIDTH 24 0
DWIDTH 17 0
BBX 14 18 1 0
BITMAP
0730
0FF0
0CE0
0040
0000
07E0
1FF0
3FF8
7C7C
787C
F87C
F87C
F87C
F878
F8F8
7FF0
3FF0
1FC0
ENDCHAR

STARTCHAR char246
ENCODING 246
SWIDTH 24 0
DWIDTH 17 0
BBX 14 18 1 0
BITMAP
07BC
0F7C
0F7C
0F00
0000
07E0
1FF0
3FF8
7C7C
787C
F87C
F87C
F87C
F8F8
F8F8
7FF0
7FE0
1F80
ENDCHAR

STARTCHAR char247
ENCODING 247
SWIDTH 13 0
DWIDTH 14 0
BBX 13 9 0 2
BITMAP
0700
0700
0700
0000
FFF8
0000
0700
0700
0700
ENDCHAR

STARTCHAR char248
ENCODING 248
SWIDTH 24 0
DWIDTH 17 0
BBX 16 13 0 0
BITMAP
03F1
0FFF
3FFE
3E7E
7C7E
7CFE
79FE
FF3E
FE7E
7C7C
7FF8
FFF0
8FC0
ENDCHAR

STARTCHAR char249
ENCODING 249
SWIDTH 24 0
DWIDTH 17 0
BBX 15 18 1 0
BITMAP
0F80
0780
03C0
0000
0000
3C3E
3C3E
7C7C
7C7C
7C7C
787C
F87C
F8F8
F8F8
F9F8
FFF8
7FF8
7C10
ENDCHAR

STARTCHAR char250
ENCODING 250
SWIDTH 24 0
DWIDTH 17 0
BBX 15 18 1 0
BITMAP
01F0
01E0
03C0
0000
0000
3C3E
3C3E
7C7C
7C7C
7C7C
787C
F87C
F8F8
F8F8
F9F8
FFF8
FFF8
7C10
ENDCHAR

STARTCHAR char251
ENCODING 251
SWIDTH 24 0
DWIDTH 17 0
BBX 15 18 1 0
BITMAP
03F0
07F0
0F78
0000
0000
3C3E
3C3E
7C7C
7C7C
7C7C
787C
F87C
F8F8
F8F8
F9F8
FFF8
7FF8
7C10
ENDCHAR

STARTCHAR char252
ENCODING 252
SWIDTH 24 0
DWIDTH 17 0
BBX 15 18 1 0
BITMAP
0F3C
0F3C
0F7C
1F00
0000
7C3E
7C3E
7C7C
7C7C
787C
F87C
F87C
F8F8
F8F8
FDF8
FFF8
FFF8
7C10
ENDCHAR

STARTCHAR char255
ENCODING 255
SWIDTH 17 0
DWIDTH 15 0
BBX 15 22 0 -4
BITMAP
1F7C
1F78
1E78
1E00
0000
7C7E
7C7C
7C7C
7CF8
3CF8
3CF0
3DF0
3DE0
3FE0
3FC0
1FC0
1F80
1F80
7F00
FE00
FE00
FC00
ENDCHAR
ENDFONT
